<svg width="24" height="24" viewBox="0 0 24 24" fill="none" xmlns="http://www.w3.org/2000/svg">
    <path
        d="M13 19C13 17.7473 13.3947 16.5893 14.0438 15.6312C14.1943 15.409 14.2402 15.1315 14.1299 14.8867V14.8867C13.9856 14.5664 14.0601 14.1824 14.2844 13.9119C14.3195 13.8695 14.3536 13.8263 14.3864 13.7823C14.6562 13.4211 15.0929 13.1656 15.5157 13.3218C15.5959 13.3515 15.6759 13.3834 15.7552 13.4178C16.0724 13.5551 16.4344 13.5676 16.7548 13.438C17.491 13.1401 18.2809 12.9906 19.0787 13.0005C19.645 13.0076 20.2052 13.0947 20.7432 13.2577C21.325 13.434 22 13.1078 22 12.5V12.5C22 9.1416 18.5063 8.23849 15.0192 9.79068C14.6114 9.9722 14.1339 9.86775 13.7766 9.60023V9.60023C13.4189 9.3325 13.1637 8.89984 13.3151 8.47955C13.5671 7.78016 13.9983 7.11214 14.73 6.75C17.09 5.57 17 2 12.5 2C9.15392 2 8.25004 5.47882 9.78836 8.95352C9.96974 9.36321 9.85567 9.84461 9.58579 10.2023V10.2023C9.31743 10.5579 8.88767 10.8156 8.46798 10.6661C7.76859 10.4169 7.09928 9.99118 6.73 9.26C5.56 6.89 2 7 2 11.5C2 14.8456 5.46894 15.7409 8.94199 14.2107C9.35389 14.0292 9.83238 14.1342 10.1935 14.4029V14.4029C10.557 14.6735 10.8206 15.1176 10.6619 15.5421C10.4056 16.2276 9.97754 16.8812 9.26 17.24C6.9 18.42 7 22 11.5 22C11.9848 22 12.4266 21.9212 12.8104 21.7786C13.2422 21.6182 13.3664 21.1133 13.2392 20.6706C13.087 20.1407 13 19.5818 13 19ZM12 13C11.43 13 11 12.55 11 12C11 11.45 11.43 11 12 11C12.54 11 13 11.45 13 12C13 12.55 12.54 13 12 13ZM17 15C16.4477 15 16 15.4477 16 16V16C16 16.5523 16.4477 17 17 17H18.5C18.7761 17 19 17.2239 19 17.5V17.5C19 17.7761 18.7761 18 18.5 18H18C16.9 18 16 18.9 16 20V22C16 22.5523 16.4477 23 17 23H20C20.5523 23 21 22.5523 21 22V22C21 21.4477 20.5523 21 20 21H18.5C18.2239 21 18 20.7761 18 20.5V20.5C18 20.2239 18.2239 20 18.5 20H19C20.11 20 21 19.11 21 18V17C21 16.4696 20.7893 15.9609 20.4142 15.5858C20.0391 15.2107 19.5304 15 19 15H17Z"
        fill="black" />
</svg>
