<svg width="21" height="20" viewBox="0 0 21 20" fill="none" xmlns="http://www.w3.org/2000/svg">
    <path
        d="M14.8333 11.3125C14.4722 11.3125 14.1181 11.2639 13.7708 11.1667C13.4236 11.0694 13.0833 10.9444 12.75 10.7917L13.2708 9.20833C13.5486 9.33333 13.8228 9.4375 14.0933 9.52083C14.3644 9.60417 14.6181 9.64583 14.8542 9.64583C15.0208 9.64583 15.1875 9.61806 15.3542 9.5625C15.5208 9.50694 15.6944 9.42361 15.875 9.3125C16.2083 9.07639 16.5417 8.91667 16.875 8.83333C17.2083 8.75 17.5278 8.70833 17.8333 8.70833C18.1806 8.70833 18.5381 8.75333 18.9058 8.84333C19.2742 8.93389 19.6181 9.05556 19.9375 9.20833L19.4167 10.7917C19.0972 10.6806 18.8022 10.5833 18.5317 10.5C18.2606 10.4167 18.0278 10.375 17.8333 10.375C17.6667 10.375 17.4828 10.4061 17.2817 10.4683C17.08 10.5311 16.8681 10.6389 16.6458 10.7917C16.3542 10.9861 16.0589 11.1217 15.76 11.1983C15.4617 11.2744 15.1528 11.3125 14.8333 11.3125ZM14.8542 8.0625C14.4931 8.0625 14.1319 8.01389 13.7708 7.91667C13.4097 7.81944 13.0694 7.69444 12.75 7.54167L13.2708 5.95833C13.6319 6.11111 13.9375 6.22222 14.1875 6.29167C14.4375 6.36111 14.6597 6.39583 14.8542 6.39583C15.0208 6.39583 15.1875 6.37167 15.3542 6.32333C15.5208 6.27444 15.6944 6.1875 15.875 6.0625C16.2222 5.82639 16.5592 5.66667 16.8858 5.58333C17.2119 5.5 17.5278 5.45833 17.8333 5.45833C18.1806 5.45833 18.5278 5.50361 18.875 5.59417C19.2222 5.68417 19.5764 5.80556 19.9375 5.95833L19.4167 7.54167C19.0556 7.41667 18.75 7.31611 18.5 7.24C18.25 7.16333 18.0278 7.125 17.8333 7.125C17.6528 7.125 17.4689 7.15278 17.2817 7.20833C17.0939 7.26389 16.8819 7.375 16.6458 7.54167C16.3958 7.72222 16.1147 7.85417 15.8025 7.9375C15.4897 8.02083 15.1736 8.0625 14.8542 8.0625ZM14.8542 14.5625C14.4931 14.5625 14.1356 14.5139 13.7817 14.4167C13.4272 14.3194 13.0833 14.1944 12.75 14.0417L13.2708 12.4583C13.5764 12.5972 13.8611 12.7047 14.125 12.7808C14.3889 12.8575 14.6319 12.8958 14.8542 12.8958C15.0208 12.8958 15.1875 12.8714 15.3542 12.8225C15.5208 12.7742 15.6944 12.6875 15.875 12.5625C16.1944 12.3403 16.5347 12.1839 16.8958 12.0933C17.2569 12.0033 17.5764 11.9583 17.8542 11.9583C18.2014 11.9583 18.5556 12.0069 18.9167 12.1042C19.2778 12.2014 19.6181 12.3194 19.9375 12.4583L19.4167 14.0417C19.0556 13.9167 18.7464 13.8161 18.4892 13.74C18.2325 13.6633 18.0139 13.625 17.8333 13.625C17.6389 13.625 17.4411 13.6561 17.24 13.7183C17.0383 13.7811 16.8403 13.8889 16.6458 14.0417C16.4097 14.2083 16.1353 14.3367 15.8225 14.4267C15.5103 14.5172 15.1875 14.5625 14.8542 14.5625ZM8.83333 12.5V8.33333H11.3333V12.5H8.83333ZM3 17.5V5C3 4.30556 3.24306 3.71528 3.72917 3.22917C4.21528 2.74306 4.80556 2.5 5.5 2.5H8.83333C9.52778 2.5 10.1181 2.74306 10.6042 3.22917C11.0903 3.71528 11.3333 4.30556 11.3333 5V6.66667H8.83333C8.375 6.66667 7.98278 6.82972 7.65667 7.15583C7.33 7.4825 7.16667 7.875 7.16667 8.33333V12.5C7.16667 12.9583 7.33 13.3508 7.65667 13.6775C7.98278 14.0036 8.375 14.1667 8.83333 14.1667H11.3333V17.5H3Z"
        fill="#101010" />
</svg>
