<svg width="9" height="16" viewBox="0 0 9 16" fill="none" xmlns="http://www.w3.org/2000/svg">
    <path
        d="M6.7334 15.0669L0.600065 8.93356C0.466731 8.80023 0.372509 8.65578 0.317398 8.50023C0.261398 8.34467 0.233398 8.17801 0.233398 8.00023C0.233398 7.82245 0.261398 7.65578 0.317398 7.50023C0.372509 7.34467 0.466731 7.20023 0.600065 7.06689L6.7334 0.933561C6.97784 0.689116 7.28895 0.566895 7.66673 0.566895C8.04451 0.566895 8.35562 0.689116 8.60007 0.933561C8.84451 1.17801 8.96673 1.48912 8.96673 1.86689C8.96673 2.24467 8.84451 2.55578 8.60007 2.80023L3.40007 8.00023L8.60007 13.2002C8.84451 13.4447 8.96673 13.7558 8.96673 14.1336C8.96673 14.5113 8.84451 14.8224 8.60007 15.0669C8.35562 15.3113 8.04451 15.4336 7.66673 15.4336C7.28895 15.4336 6.97784 15.3113 6.7334 15.0669Z"
        fill="black" />
</svg>
