<svg width="32" height="32" viewBox="0 0 32 32" fill="none" xmlns="http://www.w3.org/2000/svg">
    <path
        d="M16.0003 22.6665C16.3781 22.6665 16.695 22.5385 16.951 22.2825C17.2061 22.0274 17.3337 21.7109 17.3337 21.3332V17.3332H21.367C21.7448 17.3332 22.0559 17.2052 22.3003 16.9492C22.5448 16.6941 22.667 16.3776 22.667 15.9998C22.667 15.6221 22.539 15.3052 22.283 15.0492C22.0279 14.7941 21.7114 14.6665 21.3337 14.6665H17.3337V10.6332C17.3337 10.2554 17.2061 9.94428 16.951 9.69984C16.695 9.45539 16.3781 9.33317 16.0003 9.33317C15.6225 9.33317 15.3061 9.46073 15.051 9.71584C14.795 9.97184 14.667 10.2887 14.667 10.6665V14.6665H10.6337C10.2559 14.6665 9.94477 14.7941 9.70033 15.0492C9.45588 15.3052 9.33366 15.6221 9.33366 15.9998C9.33366 16.3776 9.46121 16.6941 9.71633 16.9492C9.97233 17.2052 10.2892 17.3332 10.667 17.3332H14.667V21.3665C14.667 21.7443 14.795 22.0554 15.051 22.2998C15.3061 22.5443 15.6225 22.6665 16.0003 22.6665ZM16.0003 29.3332C14.1559 29.3332 12.4225 28.9829 10.8003 28.2825C9.1781 27.5829 7.76699 26.6332 6.56699 25.4332C5.36699 24.2332 4.41721 22.8221 3.71766 21.1998C3.01721 19.5776 2.66699 17.8443 2.66699 15.9998C2.66699 14.1554 3.01721 12.4221 3.71766 10.7998C4.41721 9.17762 5.36699 7.7665 6.56699 6.5665C7.76699 5.3665 9.1781 4.41628 10.8003 3.71584C12.4225 3.01628 14.1559 2.6665 16.0003 2.6665C17.8448 2.6665 19.5781 3.01628 21.2003 3.71584C22.8225 4.41628 24.2337 5.3665 25.4337 6.5665C26.6337 7.7665 27.5834 9.17762 28.283 10.7998C28.9834 12.4221 29.3337 14.1554 29.3337 15.9998C29.3337 17.8443 28.9834 19.5776 28.283 21.1998C27.5834 22.8221 26.6337 24.2332 25.4337 25.4332C24.2337 26.6332 22.8225 27.5829 21.2003 28.2825C19.5781 28.9829 17.8448 29.3332 16.0003 29.3332Z"
        fill="#101010" />
</svg>
