<svg width="16" height="16" viewBox="0 0 16 16" fill="none" xmlns="http://www.w3.org/2000/svg">
    <path
        d="M8.375 14.25C8.03125 14.25 7.73708 14.1277 7.4925 13.8831C7.2475 13.6381 7.125 13.3438 7.125 13H9.625C9.625 13.3438 9.50271 13.6381 9.25813 13.8831C9.01312 14.1277 8.71875 14.25 8.375 14.25ZM5.875 12.375V11.125H10.875V12.375H5.875ZM6.03125 10.5C5.3125 10.0729 4.74229 9.5 4.32063 8.78125C3.89854 8.0625 3.6875 7.28125 3.6875 6.4375C3.6875 5.13542 4.14333 4.02875 5.055 3.1175C5.96625 2.20583 7.07292 1.75 8.375 1.75C9.67708 1.75 10.7838 2.20583 11.695 3.1175C12.6067 4.02875 13.0625 5.13542 13.0625 6.4375C13.0625 7.28125 12.8517 8.0625 12.43 8.78125C12.0079 9.5 11.4375 10.0729 10.7188 10.5H6.03125Z"
        fill="#101010" />
</svg>
