<svg width="21" height="20" viewBox="0 0 21 20" fill="none" xmlns="http://www.w3.org/2000/svg">
    <path
        d="M8.83301 19.1668C8.83301 18.7084 8.99634 18.3159 9.32301 17.9893C9.64912 17.6632 10.0413 17.5001 10.4997 17.5001V12.7293C10.6247 12.7848 10.7566 12.8265 10.8955 12.8543C11.0344 12.882 11.1802 12.8959 11.333 12.8959C11.9163 12.8959 12.4061 12.6979 12.8022 12.3018C13.1977 11.9062 13.3955 11.4168 13.3955 10.8334V10.6459L16.0622 11.2918C16.2844 11.3473 16.4858 11.4445 16.6663 11.5834C16.8469 11.7223 16.9927 11.889 17.1038 12.0834L18.9997 15.5001C19.208 15.8751 19.2844 16.2709 19.2288 16.6876C19.1733 17.1043 18.9927 17.4654 18.6872 17.7709C18.3122 18.1459 17.8644 18.3334 17.3438 18.3334C16.8227 18.3334 16.3747 18.1459 15.9997 17.7709L12.1663 13.9376V17.5001C12.6247 17.5001 13.0172 17.6632 13.3438 17.9893C13.67 18.3159 13.833 18.7084 13.833 19.1668H8.83301ZM6.33301 17.5001H3.83301C3.5969 17.5001 3.39912 17.4201 3.23967 17.2601C3.07967 17.1007 2.99967 16.9029 2.99967 16.6668C2.99967 16.4307 3.07967 16.2329 3.23967 16.0734C3.39912 15.9134 3.5969 15.8334 3.83301 15.8334H6.33301C6.56912 15.8334 6.76717 15.9134 6.92717 16.0734C7.08662 16.2329 7.16634 16.4307 7.16634 16.6668C7.16634 16.9029 7.08662 17.1007 6.92717 17.2601C6.76717 17.4201 6.56912 17.5001 6.33301 17.5001ZM6.45801 13.9584L2.70801 12.8959C2.30523 12.7848 1.97523 12.559 1.71801 12.2184C1.46134 11.8784 1.33301 11.4932 1.33301 11.0626C1.33301 10.5348 1.51717 10.0868 1.88551 9.71844C2.25329 9.35066 2.70106 9.16677 3.22884 9.16677H10.1038C9.83995 9.36121 9.63523 9.60094 9.48967 9.88594C9.34356 10.1704 9.27051 10.4862 9.27051 10.8334C9.27051 11.1529 9.33301 11.4445 9.45801 11.7084C9.58301 11.9723 9.75662 12.2015 9.97884 12.3959L7.79134 13.7918C7.5969 13.9029 7.38523 13.9757 7.15634 14.0101C6.9269 14.0451 6.69412 14.0279 6.45801 13.9584ZM11.333 12.0834C10.9858 12.0834 10.6908 11.9618 10.448 11.7184C10.2047 11.4757 10.083 11.1807 10.083 10.8334C10.083 10.4862 10.2047 10.1912 10.448 9.94844C10.6908 9.7051 10.9858 9.58344 11.333 9.58344C11.6802 9.58344 11.9752 9.7051 12.218 9.94844C12.4613 10.1912 12.583 10.4862 12.583 10.8334C12.583 11.1807 12.4613 11.4757 12.218 11.7184C11.9752 11.9618 11.6802 12.0834 11.333 12.0834ZM13.2497 10.0418C13.0969 9.66677 12.8505 9.36121 12.5105 9.1251C12.17 8.88899 11.7775 8.77094 11.333 8.77094C11.1802 8.77094 11.0344 8.78482 10.8955 8.8126C10.7566 8.84038 10.6247 8.88205 10.4997 8.9376V5.64594C10.4997 5.40983 10.545 5.1876 10.6355 4.97927C10.7255 4.77094 10.8538 4.59038 11.0205 4.4376L13.8747 1.77094C14.1941 1.46538 14.5658 1.29177 14.9897 1.2501C15.413 1.20844 15.8052 1.29871 16.1663 1.52094C16.6108 1.79871 16.8991 2.19094 17.0313 2.6976C17.163 3.20483 17.09 3.68066 16.8122 4.1251L13.2497 10.0418ZM4.66634 7.5001H2.16634C1.93023 7.5001 1.73245 7.4201 1.57301 7.2601C1.41301 7.10066 1.33301 6.90288 1.33301 6.66677C1.33301 6.43066 1.41301 6.2326 1.57301 6.0726C1.73245 5.91316 1.93023 5.83344 2.16634 5.83344H4.66634C4.90245 5.83344 5.10051 5.91316 5.26051 6.0726C5.41995 6.2326 5.49967 6.43066 5.49967 6.66677C5.49967 6.90288 5.41995 7.10066 5.26051 7.2601C5.10051 7.4201 4.90245 7.5001 4.66634 7.5001ZM7.99967 4.16677H4.66634C4.43023 4.16677 4.23217 4.08677 4.07217 3.92677C3.91273 3.76732 3.83301 3.56955 3.83301 3.33344C3.83301 3.09733 3.91273 2.89927 4.07217 2.73927C4.23217 2.57983 4.43023 2.5001 4.66634 2.5001H7.99967C8.23579 2.5001 8.43384 2.57983 8.59384 2.73927C8.75329 2.89927 8.83301 3.09733 8.83301 3.33344C8.83301 3.56955 8.75329 3.76732 8.59384 3.92677C8.43384 4.08677 8.23579 4.16677 7.99967 4.16677Z"
        fill="#101010" />
</svg>
