<svg width="16" height="16" viewBox="0 0 16 16" fill="none" xmlns="http://www.w3.org/2000/svg">
    <path
        d="M6.125 13.625C5.94792 13.625 5.79958 13.565 5.68 13.445C5.56 13.3254 5.5 13.1771 5.5 13V12.375H3C2.65625 12.375 2.36208 12.2527 2.1175 12.0081C1.8725 11.7631 1.75 11.4688 1.75 11.125V3.625C1.75 3.28125 1.8725 2.98687 2.1175 2.74187C2.36208 2.49729 2.65625 2.375 3 2.375H13C13.3438 2.375 13.6381 2.49729 13.8831 2.74187C14.1277 2.98687 14.25 3.28125 14.25 3.625V11.125C14.25 11.4688 14.1277 11.7631 13.8831 12.0081C13.6381 12.2527 13.3438 12.375 13 12.375H10.5V13C10.5 13.1771 10.4402 13.3254 10.3206 13.445C10.2006 13.565 10.0521 13.625 9.875 13.625H6.125Z"
        fill="#101010" />
</svg>
